<svg width="36" height="36" viewBox="0 0 36 36" fill="none" xmlns="http://www.w3.org/2000/svg">
<g opacity="0.9">
<path d="M7.53459 9.89218C6.15062 9.89218 5.03955 8.77804 5.03955 7.43C5.03955 7.20343 5.14482 6.75006 5.39661 6.08669C5.63505 5.45852 5.96214 4.74916 6.30764 4.05828C6.75705 3.15959 7.22335 2.32034 7.53461 1.77582C7.84589 2.32035 8.31225 3.15972 8.7617 4.05851C9.10716 4.74937 9.4342 5.45867 9.6726 6.08679C9.92436 6.75012 10.0296 7.20344 10.0296 7.43C10.0296 8.77762 8.91845 9.89218 7.53459 9.89218Z" stroke="#B01736" stroke-width="2"/>
<path d="M5.03955 12.2408C5.03955 11.4678 5.66625 10.8411 6.43932 10.8411H8.62983C9.4029 10.8411 10.0296 11.4678 10.0296 12.2408V20.0907H5.03955V12.2408Z" stroke="#B01736" stroke-width="2"/>
<path d="M15.5249 12.2408C15.5249 11.4678 16.1516 10.8411 16.9247 10.8411H19.1152C19.8883 10.8411 20.515 11.4678 20.515 12.2408V20.0907H15.5249V12.2408Z" stroke="#B01736" stroke-width="2"/>
<path d="M16.793 4.05828C17.2424 3.15959 17.7087 2.32034 18.02 1.77582C18.3312 2.32035 18.7976 3.15972 19.247 4.05851C19.5925 4.74937 19.9196 5.45867 20.158 6.08679C20.4097 6.75012 20.515 7.20344 20.515 7.43V7.43028C20.5153 8.77743 19.404 9.89218 18.0199 9.89218C16.636 9.89218 15.5249 8.77804 15.5249 7.43C15.5249 7.20343 15.6302 6.75006 15.882 6.08669C16.1204 5.45852 16.4475 4.74916 16.793 4.05828Z" stroke="#B01736" stroke-width="2"/>
<path d="M26.0103 12.2408C26.0103 11.4678 26.637 10.8411 27.41 10.8411H29.6005C30.3736 10.8411 31.0003 11.4678 31.0003 12.2408V20.0907H26.0103V12.2408Z" stroke="#B01736" stroke-width="2"/>
<path d="M28.5053 9.89218C27.1213 9.89218 26.0103 8.77804 26.0103 7.43C26.0103 7.20343 26.1155 6.75006 26.3673 6.08669C26.6058 5.45852 26.9328 4.74916 27.2783 4.05828C27.7278 3.15959 28.1941 2.32034 28.5053 1.77582C28.8166 2.32035 29.283 3.15972 29.7324 4.05851C30.0779 4.74937 30.4049 5.45867 30.6433 6.08679C30.8951 6.75012 31.0003 7.20344 31.0003 7.43C31.0003 8.77762 29.8892 9.89218 28.5053 9.89218Z" stroke="#B01736" stroke-width="2"/>
<path d="M1.07959 27.0814L2.59309 28.2552C3.33028 28.8268 4.6164 28.8268 5.35359 28.2552L6.86755 27.0814C7.205 26.8209 7.79167 26.8202 8.12911 27.0814L9.6426 28.2552C10.4048 28.8461 11.6436 28.8451 12.4036 28.2552L13.9171 27.0814C14.2541 26.8209 14.8407 26.8202 15.1786 27.0814L16.6926 28.2552C17.0614 28.5412 17.5516 28.6984 18.0728 28.6984C18.5944 28.6984 19.0847 28.5408 19.454 28.2552L20.968 27.0814C21.3059 26.8202 21.8926 26.8209 22.2295 27.0814L23.743 28.2552C24.5053 28.8461 25.7441 28.8451 26.504 28.2552L28.0175 27.0814C28.3554 26.8202 28.9421 26.8209 29.2791 27.0814L30.793 28.2552C31.5534 28.8447 32.7918 28.8458 33.5535 28.2552C34.3153 27.6646 35.0675 27.0814 35.0675 27.0814" stroke="#B01736" stroke-width="2"/>
<rect x="1.54834" y="20.7998" width="32.9058" height="13.6528" rx="3.79954" stroke="#B01736" stroke-width="2"/>
</g>
</svg>
