<svg width="50" height="36" viewBox="0 0 50 36" fill="none" xmlns="http://www.w3.org/2000/svg">
<g opacity="0.9">
<mask id="path-1-outside-1_501_563" maskUnits="userSpaceOnUse" x="0" y="-0.45459" width="50" height="37" fill="black">
<rect fill="white" y="-0.45459" width="50" height="37"/>
<path d="M37.8127 0.54541C37.49 0.550151 37.1821 0.680321 36.9536 0.907895L32.8854 4.96761C32.6518 5.19993 32.5209 5.51542 32.5209 5.84472C32.5209 6.17402 32.6522 6.48952 32.8859 6.72226L33.0824 6.91794C32.6462 7.37697 32.0795 7.69203 31.4588 7.82091C30.8381 7.94978 30.1929 7.88599 29.6093 7.63859C28.831 7.30801 27.9719 7.21749 27.1419 7.37826C26.3113 7.53902 25.5486 7.94375 24.9504 8.54024L24.4731 9.01651C23.925 8.40017 23.1986 7.96872 22.3939 7.78161C20.6633 7.47085 18.8902 7.47473 17.1609 7.7941C17.6019 7.30447 17.5824 6.55577 17.1164 6.08991L13.0465 2.02843C12.5614 1.54484 11.7749 1.54441 11.2899 2.028L1.36377 11.9335C0.878742 12.4175 0.878742 13.2024 1.36377 13.6865L5.4337 17.7479C5.91873 18.232 6.70523 18.232 7.1903 17.7479L7.36565 17.5712C8.41605 18.7225 9.24189 20.059 9.80159 21.5124C10.4542 22.6999 11.3651 23.7257 12.4677 24.5144C12.0583 25.0015 11.8695 25.6364 11.9473 26.2674C12.025 26.8984 12.3615 27.4691 12.8768 27.8431C13.392 28.2168 14.0399 28.3604 14.6653 28.2392C14.4986 28.7612 14.5241 29.3254 14.7383 29.8297C14.9521 30.3344 15.34 30.746 15.8315 30.9896C16.3234 31.2335 16.8862 31.2934 17.4184 31.1589C17.2529 31.8124 17.3834 32.505 17.776 33.0533C18.1681 33.6015 18.7819 33.9498 19.4548 34.0058C20.1278 34.0618 20.7912 33.8196 21.2688 33.3438L21.4861 33.1291C21.4774 33.7407 21.7137 34.3299 22.143 34.767C22.5719 35.2036 23.158 35.4514 23.7709 35.4545C24.3838 35.4579 24.9725 35.217 25.4066 34.7847L27.2011 32.996C27.2698 32.927 27.3337 32.8542 27.3929 32.7774C27.8576 33.1016 28.4256 33.2429 28.9884 33.1744C29.5512 33.1059 30.0686 32.8317 30.4414 32.4055C30.8141 31.9788 31.0154 31.4301 31.0072 30.8646L31.3177 31.1723C31.8412 31.6956 32.5854 31.9348 33.3166 31.815C34.0478 31.6947 34.6758 31.2301 35.0036 30.5668C35.3315 29.9039 35.3189 29.1238 34.9695 28.4717C35.6515 28.5256 36.3218 28.2734 36.7987 27.7838C37.2755 27.2942 37.5087 26.6179 37.4353 25.9395L40.0402 23.34C41.1774 22.2043 41.8711 20.7 41.995 19.0988C42.0689 18.1475 42.2227 17.204 42.455 16.2783L42.8118 16.63C43.2968 17.114 44.0833 17.114 44.5684 16.63L48.6366 12.5703C49.1212 12.0862 49.1212 11.3018 48.6366 10.8178L38.7105 0.912261C38.4729 0.675208 38.149 0.54461 37.813 0.549774L37.8127 0.54541ZM37.8235 1.19193C37.9837 1.19064 38.1375 1.25357 38.2502 1.36692L48.1742 11.2703C48.2856 11.3815 48.3482 11.5324 48.3482 11.6897C48.3482 11.847 48.2856 11.9979 48.1742 12.1086L44.1082 16.1679C43.9968 16.2791 43.8456 16.342 43.688 16.342C43.5303 16.342 43.3796 16.2795 43.2682 16.1683L33.3399 6.26285C33.1088 6.03182 33.1088 5.65771 33.3399 5.42669L37.4101 1.36697C37.5194 1.25707 37.668 1.19408 37.8235 1.19193ZM12.1593 2.31044C12.3196 2.30786 12.4742 2.37035 12.5878 2.48371L16.6559 6.54552C16.887 6.77698 16.887 7.15023 16.6559 7.38168L6.72985 17.2872C6.61842 17.3984 6.46725 17.4609 6.3096 17.4609C6.15239 17.4609 6.00122 17.3984 5.88979 17.2872L1.82384 13.2275C1.71241 13.1163 1.64935 12.9654 1.64935 12.8081C1.64935 12.6508 1.71241 12.4999 1.82384 12.3891L11.7499 2.48364C11.8588 2.37502 12.0056 2.31259 12.1593 2.31044ZM33.5378 7.37479L41.9272 15.7425C41.6301 16.8226 41.4361 17.929 41.3489 19.0458C41.2362 20.4927 40.6095 21.8517 39.582 22.8779L37.2346 25.2183C37.121 24.9739 36.9651 24.7515 36.7742 24.561L27.0109 14.8179C28.3537 14.9003 29.6874 14.5455 30.8108 13.8068C30.9438 13.7029 30.9753 13.515 30.8825 13.374C30.7896 13.2331 30.6043 13.1866 30.4562 13.2676C29.1268 14.1417 27.486 14.4054 25.9487 13.9921C25.5199 13.8766 25.062 13.999 24.7476 14.3124L20.2721 18.7786C19.8532 19.182 19.252 19.335 18.6905 19.1811C18.129 19.0273 17.6906 18.5893 17.5368 18.0286C17.383 17.4683 17.5368 16.8683 17.9419 16.4507L25.4087 8.99934C25.9154 8.49376 26.5615 8.15068 27.2651 8.01447C27.9682 7.87827 28.6964 7.95499 29.3559 8.23472C30.0582 8.53169 30.8344 8.60884 31.5811 8.4554C32.3279 8.30153 33.011 7.92434 33.5378 7.37479ZM20.4531 8.21312C21.0599 8.24114 21.6646 8.3088 22.2623 8.41569C22.9426 8.57732 23.5547 8.94799 24.0124 9.47513L17.4811 15.9929C16.9119 16.5739 16.6937 17.413 16.9075 18.1975C17.1213 18.9816 17.7351 19.5944 18.5212 19.8078C19.3068 20.0212 20.1473 19.8035 20.73 19.2355L25.2055 14.7693C25.3169 14.6581 25.4681 14.5956 25.6258 14.5956C25.783 14.5956 25.9341 14.6581 26.0456 14.7693L36.316 25.0179C36.722 25.4356 36.877 26.036 36.7233 26.5975C36.5699 27.1587 36.1307 27.5975 35.5684 27.7509C35.006 27.9048 34.404 27.7509 33.9855 27.3457L31.3427 24.7084C31.2148 24.5899 31.0157 24.5929 30.8917 24.7157C30.7682 24.839 30.7639 25.0373 30.8822 25.1653L34.1078 28.3841C34.503 28.8039 34.6498 29.4 34.4943 29.9547C34.3388 30.5094 33.9043 30.943 33.348 31.0972C32.7922 31.2519 32.1957 31.105 31.775 30.7102L27.0883 26.0332C26.96 25.9164 26.7631 25.9207 26.6404 26.0431C26.5178 26.1655 26.5134 26.3629 26.6305 26.4905L29.875 29.7326C30.2659 30.1305 30.4283 30.6981 30.3069 31.2416C30.186 31.7851 29.7977 32.2304 29.2751 32.4256C28.7525 32.6204 28.1664 32.5385 27.7176 32.2079C27.9301 31.6683 27.9293 31.0683 27.7163 30.5291C27.503 29.9899 27.0931 29.5511 26.5692 29.3016C26.0448 29.0516 25.4453 29.0093 24.8912 29.183C25.0039 28.6197 24.9007 28.0348 24.6018 27.5439C24.3029 27.053 23.8308 26.6918 23.278 26.5319C22.7251 26.372 22.1326 26.425 21.6169 26.6802C21.6761 26.0501 21.4713 25.4238 21.0519 24.9496C20.6321 24.4751 20.0348 24.1949 19.4011 24.1755C18.7671 24.1557 18.1534 24.3979 17.705 24.8453L17.1392 25.41C17.1483 24.7983 16.9116 24.2087 16.4827 23.7716C16.0538 23.335 15.4677 23.0876 14.8548 23.0842C14.2419 23.0807 13.6528 23.3221 13.2192 23.754L12.9276 24.0427C11.8811 23.3113 11.0147 22.3519 10.3945 21.2368C9.80321 19.7145 8.93334 18.315 7.82986 17.1099L16.3138 8.64357C17.6653 8.29358 19.0612 8.14877 20.4558 8.21343L20.4531 8.21312ZM14.7661 23.7312C15.2114 23.711 15.6468 23.8722 15.9715 24.1773C16.2963 24.4825 16.4833 24.9058 16.4902 25.351C16.4967 25.7958 16.3227 26.2247 16.0074 26.5397L15.3953 27.1483C14.9747 27.5405 14.3795 27.6853 13.8249 27.5302C13.2708 27.375 12.8376 26.9431 12.6821 26.3897C12.527 25.8367 12.6717 25.2427 13.0648 24.8226L13.6729 24.2118C13.9649 23.9209 14.3541 23.7493 14.7661 23.7312ZM19.3513 24.8498C19.7776 24.8635 20.1818 25.0416 20.4794 25.3463C20.777 25.6514 20.945 26.0592 20.9476 26.485C20.9502 26.9104 20.7874 27.3203 20.4937 27.6289L18.0219 30.0977C17.6012 30.4895 17.0056 30.6343 16.4515 30.4792C15.8974 30.324 15.4642 29.8921 15.3087 29.3391C15.1536 28.7857 15.2983 28.1922 15.6909 27.772L18.1627 25.3031C18.4818 24.9997 18.9103 24.836 19.3513 24.8498ZM22.6718 27.1121C23.0985 27.1268 23.5032 27.307 23.7999 27.613C24.0971 27.9194 24.2633 28.3285 24.2638 28.7548C24.2646 29.1811 24.0996 29.5905 23.8038 29.8978L22.1591 31.5386L20.8123 32.8826C20.3955 33.2989 19.7879 33.4619 19.2182 33.3097C18.6489 33.1576 18.2036 32.7141 18.0511 32.146C17.8982 31.5775 18.0606 30.9711 18.4774 30.5546L21.4732 27.5694C21.7949 27.2617 22.2264 27.0966 22.6718 27.1121ZM25.5996 29.7538C26.0264 29.7676 26.4315 29.946 26.7291 30.2516C27.0267 30.5568 27.1943 30.9654 27.196 31.3912C27.1981 31.817 27.0349 32.2269 26.7399 32.5351L24.9497 34.3238C24.5324 34.7354 23.9269 34.8944 23.3607 34.7414C22.794 34.5889 22.3513 34.1471 22.1984 33.582C22.0451 33.0165 22.2049 32.4126 22.6173 31.9959L24.4098 30.2072C24.7298 29.9033 25.1577 29.7396 25.5996 29.7538Z"/>
</mask>
<path d="M37.8127 0.54541C37.49 0.550151 37.1821 0.680321 36.9536 0.907895L32.8854 4.96761C32.6518 5.19993 32.5209 5.51542 32.5209 5.84472C32.5209 6.17402 32.6522 6.48952 32.8859 6.72226L33.0824 6.91794C32.6462 7.37697 32.0795 7.69203 31.4588 7.82091C30.8381 7.94978 30.1929 7.88599 29.6093 7.63859C28.831 7.30801 27.9719 7.21749 27.1419 7.37826C26.3113 7.53902 25.5486 7.94375 24.9504 8.54024L24.4731 9.01651C23.925 8.40017 23.1986 7.96872 22.3939 7.78161C20.6633 7.47085 18.8902 7.47473 17.1609 7.7941C17.6019 7.30447 17.5824 6.55577 17.1164 6.08991L13.0465 2.02843C12.5614 1.54484 11.7749 1.54441 11.2899 2.028L1.36377 11.9335C0.878742 12.4175 0.878742 13.2024 1.36377 13.6865L5.4337 17.7479C5.91873 18.232 6.70523 18.232 7.1903 17.7479L7.36565 17.5712C8.41605 18.7225 9.24189 20.059 9.80159 21.5124C10.4542 22.6999 11.3651 23.7257 12.4677 24.5144C12.0583 25.0015 11.8695 25.6364 11.9473 26.2674C12.025 26.8984 12.3615 27.4691 12.8768 27.8431C13.392 28.2168 14.0399 28.3604 14.6653 28.2392C14.4986 28.7612 14.5241 29.3254 14.7383 29.8297C14.9521 30.3344 15.34 30.746 15.8315 30.9896C16.3234 31.2335 16.8862 31.2934 17.4184 31.1589C17.2529 31.8124 17.3834 32.505 17.776 33.0533C18.1681 33.6015 18.7819 33.9498 19.4548 34.0058C20.1278 34.0618 20.7912 33.8196 21.2688 33.3438L21.4861 33.1291C21.4774 33.7407 21.7137 34.3299 22.143 34.767C22.5719 35.2036 23.158 35.4514 23.7709 35.4545C24.3838 35.4579 24.9725 35.217 25.4066 34.7847L27.2011 32.996C27.2698 32.927 27.3337 32.8542 27.3929 32.7774C27.8576 33.1016 28.4256 33.2429 28.9884 33.1744C29.5512 33.1059 30.0686 32.8317 30.4414 32.4055C30.8141 31.9788 31.0154 31.4301 31.0072 30.8646L31.3177 31.1723C31.8412 31.6956 32.5854 31.9348 33.3166 31.815C34.0478 31.6947 34.6758 31.2301 35.0036 30.5668C35.3315 29.9039 35.3189 29.1238 34.9695 28.4717C35.6515 28.5256 36.3218 28.2734 36.7987 27.7838C37.2755 27.2942 37.5087 26.6179 37.4353 25.9395L40.0402 23.34C41.1774 22.2043 41.8711 20.7 41.995 19.0988C42.0689 18.1475 42.2227 17.204 42.455 16.2783L42.8118 16.63C43.2968 17.114 44.0833 17.114 44.5684 16.63L48.6366 12.5703C49.1212 12.0862 49.1212 11.3018 48.6366 10.8178L38.7105 0.912261C38.4729 0.675208 38.149 0.54461 37.813 0.549774L37.8127 0.54541ZM37.8235 1.19193C37.9837 1.19064 38.1375 1.25357 38.2502 1.36692L48.1742 11.2703C48.2856 11.3815 48.3482 11.5324 48.3482 11.6897C48.3482 11.847 48.2856 11.9979 48.1742 12.1086L44.1082 16.1679C43.9968 16.2791 43.8456 16.342 43.688 16.342C43.5303 16.342 43.3796 16.2795 43.2682 16.1683L33.3399 6.26285C33.1088 6.03182 33.1088 5.65771 33.3399 5.42669L37.4101 1.36697C37.5194 1.25707 37.668 1.19408 37.8235 1.19193ZM12.1593 2.31044C12.3196 2.30786 12.4742 2.37035 12.5878 2.48371L16.6559 6.54552C16.887 6.77698 16.887 7.15023 16.6559 7.38168L6.72985 17.2872C6.61842 17.3984 6.46725 17.4609 6.3096 17.4609C6.15239 17.4609 6.00122 17.3984 5.88979 17.2872L1.82384 13.2275C1.71241 13.1163 1.64935 12.9654 1.64935 12.8081C1.64935 12.6508 1.71241 12.4999 1.82384 12.3891L11.7499 2.48364C11.8588 2.37502 12.0056 2.31259 12.1593 2.31044ZM33.5378 7.37479L41.9272 15.7425C41.6301 16.8226 41.4361 17.929 41.3489 19.0458C41.2362 20.4927 40.6095 21.8517 39.582 22.8779L37.2346 25.2183C37.121 24.9739 36.9651 24.7515 36.7742 24.561L27.0109 14.8179C28.3537 14.9003 29.6874 14.5455 30.8108 13.8068C30.9438 13.7029 30.9753 13.515 30.8825 13.374C30.7896 13.2331 30.6043 13.1866 30.4562 13.2676C29.1268 14.1417 27.486 14.4054 25.9487 13.9921C25.5199 13.8766 25.062 13.999 24.7476 14.3124L20.2721 18.7786C19.8532 19.182 19.252 19.335 18.6905 19.1811C18.129 19.0273 17.6906 18.5893 17.5368 18.0286C17.383 17.4683 17.5368 16.8683 17.9419 16.4507L25.4087 8.99934C25.9154 8.49376 26.5615 8.15068 27.2651 8.01447C27.9682 7.87827 28.6964 7.95499 29.3559 8.23472C30.0582 8.53169 30.8344 8.60884 31.5811 8.4554C32.3279 8.30153 33.011 7.92434 33.5378 7.37479ZM20.4531 8.21312C21.0599 8.24114 21.6646 8.3088 22.2623 8.41569C22.9426 8.57732 23.5547 8.94799 24.0124 9.47513L17.4811 15.9929C16.9119 16.5739 16.6937 17.413 16.9075 18.1975C17.1213 18.9816 17.7351 19.5944 18.5212 19.8078C19.3068 20.0212 20.1473 19.8035 20.73 19.2355L25.2055 14.7693C25.3169 14.6581 25.4681 14.5956 25.6258 14.5956C25.783 14.5956 25.9341 14.6581 26.0456 14.7693L36.316 25.0179C36.722 25.4356 36.877 26.036 36.7233 26.5975C36.5699 27.1587 36.1307 27.5975 35.5684 27.7509C35.006 27.9048 34.404 27.7509 33.9855 27.3457L31.3427 24.7084C31.2148 24.5899 31.0157 24.5929 30.8917 24.7157C30.7682 24.839 30.7639 25.0373 30.8822 25.1653L34.1078 28.3841C34.503 28.8039 34.6498 29.4 34.4943 29.9547C34.3388 30.5094 33.9043 30.943 33.348 31.0972C32.7922 31.2519 32.1957 31.105 31.775 30.7102L27.0883 26.0332C26.96 25.9164 26.7631 25.9207 26.6404 26.0431C26.5178 26.1655 26.5134 26.3629 26.6305 26.4905L29.875 29.7326C30.2659 30.1305 30.4283 30.6981 30.3069 31.2416C30.186 31.7851 29.7977 32.2304 29.2751 32.4256C28.7525 32.6204 28.1664 32.5385 27.7176 32.2079C27.9301 31.6683 27.9293 31.0683 27.7163 30.5291C27.503 29.9899 27.0931 29.5511 26.5692 29.3016C26.0448 29.0516 25.4453 29.0093 24.8912 29.183C25.0039 28.6197 24.9007 28.0348 24.6018 27.5439C24.3029 27.053 23.8308 26.6918 23.278 26.5319C22.7251 26.372 22.1326 26.425 21.6169 26.6802C21.6761 26.0501 21.4713 25.4238 21.0519 24.9496C20.6321 24.4751 20.0348 24.1949 19.4011 24.1755C18.7671 24.1557 18.1534 24.3979 17.705 24.8453L17.1392 25.41C17.1483 24.7983 16.9116 24.2087 16.4827 23.7716C16.0538 23.335 15.4677 23.0876 14.8548 23.0842C14.2419 23.0807 13.6528 23.3221 13.2192 23.754L12.9276 24.0427C11.8811 23.3113 11.0147 22.3519 10.3945 21.2368C9.80321 19.7145 8.93334 18.315 7.82986 17.1099L16.3138 8.64357C17.6653 8.29358 19.0612 8.14877 20.4558 8.21343L20.4531 8.21312ZM14.7661 23.7312C15.2114 23.711 15.6468 23.8722 15.9715 24.1773C16.2963 24.4825 16.4833 24.9058 16.4902 25.351C16.4967 25.7958 16.3227 26.2247 16.0074 26.5397L15.3953 27.1483C14.9747 27.5405 14.3795 27.6853 13.8249 27.5302C13.2708 27.375 12.8376 26.9431 12.6821 26.3897C12.527 25.8367 12.6717 25.2427 13.0648 24.8226L13.6729 24.2118C13.9649 23.9209 14.3541 23.7493 14.7661 23.7312ZM19.3513 24.8498C19.7776 24.8635 20.1818 25.0416 20.4794 25.3463C20.777 25.6514 20.945 26.0592 20.9476 26.485C20.9502 26.9104 20.7874 27.3203 20.4937 27.6289L18.0219 30.0977C17.6012 30.4895 17.0056 30.6343 16.4515 30.4792C15.8974 30.324 15.4642 29.8921 15.3087 29.3391C15.1536 28.7857 15.2983 28.1922 15.6909 27.772L18.1627 25.3031C18.4818 24.9997 18.9103 24.836 19.3513 24.8498ZM22.6718 27.1121C23.0985 27.1268 23.5032 27.307 23.7999 27.613C24.0971 27.9194 24.2633 28.3285 24.2638 28.7548C24.2646 29.1811 24.0996 29.5905 23.8038 29.8978L22.1591 31.5386L20.8123 32.8826C20.3955 33.2989 19.7879 33.4619 19.2182 33.3097C18.6489 33.1576 18.2036 32.7141 18.0511 32.146C17.8982 31.5775 18.0606 30.9711 18.4774 30.5546L21.4732 27.5694C21.7949 27.2617 22.2264 27.0966 22.6718 27.1121ZM25.5996 29.7538C26.0264 29.7676 26.4315 29.946 26.7291 30.2516C27.0267 30.5568 27.1943 30.9654 27.196 31.3912C27.1981 31.817 27.0349 32.2269 26.7399 32.5351L24.9497 34.3238C24.5324 34.7354 23.9269 34.8944 23.3607 34.7414C22.794 34.5889 22.3513 34.1471 22.1984 33.582C22.0451 33.0165 22.2049 32.4126 22.6173 31.9959L24.4098 30.2072C24.7298 29.9033 25.1577 29.7396 25.5996 29.7538Z" fill="#B01736"/>
<path d="M37.8127 0.54541C37.49 0.550151 37.1821 0.680321 36.9536 0.907895L32.8854 4.96761C32.6518 5.19993 32.5209 5.51542 32.5209 5.84472C32.5209 6.17402 32.6522 6.48952 32.8859 6.72226L33.0824 6.91794C32.6462 7.37697 32.0795 7.69203 31.4588 7.82091C30.8381 7.94978 30.1929 7.88599 29.6093 7.63859C28.831 7.30801 27.9719 7.21749 27.1419 7.37826C26.3113 7.53902 25.5486 7.94375 24.9504 8.54024L24.4731 9.01651C23.925 8.40017 23.1986 7.96872 22.3939 7.78161C20.6633 7.47085 18.8902 7.47473 17.1609 7.7941C17.6019 7.30447 17.5824 6.55577 17.1164 6.08991L13.0465 2.02843C12.5614 1.54484 11.7749 1.54441 11.2899 2.028L1.36377 11.9335C0.878742 12.4175 0.878742 13.2024 1.36377 13.6865L5.4337 17.7479C5.91873 18.232 6.70523 18.232 7.1903 17.7479L7.36565 17.5712C8.41605 18.7225 9.24189 20.059 9.80159 21.5124C10.4542 22.6999 11.3651 23.7257 12.4677 24.5144C12.0583 25.0015 11.8695 25.6364 11.9473 26.2674C12.025 26.8984 12.3615 27.4691 12.8768 27.8431C13.392 28.2168 14.0399 28.3604 14.6653 28.2392C14.4986 28.7612 14.5241 29.3254 14.7383 29.8297C14.9521 30.3344 15.34 30.746 15.8315 30.9896C16.3234 31.2335 16.8862 31.2934 17.4184 31.1589C17.2529 31.8124 17.3834 32.505 17.776 33.0533C18.1681 33.6015 18.7819 33.9498 19.4548 34.0058C20.1278 34.0618 20.7912 33.8196 21.2688 33.3438L21.4861 33.1291C21.4774 33.7407 21.7137 34.3299 22.143 34.767C22.5719 35.2036 23.158 35.4514 23.7709 35.4545C24.3838 35.4579 24.9725 35.217 25.4066 34.7847L27.2011 32.996C27.2698 32.927 27.3337 32.8542 27.3929 32.7774C27.8576 33.1016 28.4256 33.2429 28.9884 33.1744C29.5512 33.1059 30.0686 32.8317 30.4414 32.4055C30.8141 31.9788 31.0154 31.4301 31.0072 30.8646L31.3177 31.1723C31.8412 31.6956 32.5854 31.9348 33.3166 31.815C34.0478 31.6947 34.6758 31.2301 35.0036 30.5668C35.3315 29.9039 35.3189 29.1238 34.9695 28.4717C35.6515 28.5256 36.3218 28.2734 36.7987 27.7838C37.2755 27.2942 37.5087 26.6179 37.4353 25.9395L40.0402 23.34C41.1774 22.2043 41.8711 20.7 41.995 19.0988C42.0689 18.1475 42.2227 17.204 42.455 16.2783L42.8118 16.63C43.2968 17.114 44.0833 17.114 44.5684 16.63L48.6366 12.5703C49.1212 12.0862 49.1212 11.3018 48.6366 10.8178L38.7105 0.912261C38.4729 0.675208 38.149 0.54461 37.813 0.549774L37.8127 0.54541ZM37.8235 1.19193C37.9837 1.19064 38.1375 1.25357 38.2502 1.36692L48.1742 11.2703C48.2856 11.3815 48.3482 11.5324 48.3482 11.6897C48.3482 11.847 48.2856 11.9979 48.1742 12.1086L44.1082 16.1679C43.9968 16.2791 43.8456 16.342 43.688 16.342C43.5303 16.342 43.3796 16.2795 43.2682 16.1683L33.3399 6.26285C33.1088 6.03182 33.1088 5.65771 33.3399 5.42669L37.4101 1.36697C37.5194 1.25707 37.668 1.19408 37.8235 1.19193ZM12.1593 2.31044C12.3196 2.30786 12.4742 2.37035 12.5878 2.48371L16.6559 6.54552C16.887 6.77698 16.887 7.15023 16.6559 7.38168L6.72985 17.2872C6.61842 17.3984 6.46725 17.4609 6.3096 17.4609C6.15239 17.4609 6.00122 17.3984 5.88979 17.2872L1.82384 13.2275C1.71241 13.1163 1.64935 12.9654 1.64935 12.8081C1.64935 12.6508 1.71241 12.4999 1.82384 12.3891L11.7499 2.48364C11.8588 2.37502 12.0056 2.31259 12.1593 2.31044ZM33.5378 7.37479L41.9272 15.7425C41.6301 16.8226 41.4361 17.929 41.3489 19.0458C41.2362 20.4927 40.6095 21.8517 39.582 22.8779L37.2346 25.2183C37.121 24.9739 36.9651 24.7515 36.7742 24.561L27.0109 14.8179C28.3537 14.9003 29.6874 14.5455 30.8108 13.8068C30.9438 13.7029 30.9753 13.515 30.8825 13.374C30.7896 13.2331 30.6043 13.1866 30.4562 13.2676C29.1268 14.1417 27.486 14.4054 25.9487 13.9921C25.5199 13.8766 25.062 13.999 24.7476 14.3124L20.2721 18.7786C19.8532 19.182 19.252 19.335 18.6905 19.1811C18.129 19.0273 17.6906 18.5893 17.5368 18.0286C17.383 17.4683 17.5368 16.8683 17.9419 16.4507L25.4087 8.99934C25.9154 8.49376 26.5615 8.15068 27.2651 8.01447C27.9682 7.87827 28.6964 7.95499 29.3559 8.23472C30.0582 8.53169 30.8344 8.60884 31.5811 8.4554C32.3279 8.30153 33.011 7.92434 33.5378 7.37479ZM20.4531 8.21312C21.0599 8.24114 21.6646 8.3088 22.2623 8.41569C22.9426 8.57732 23.5547 8.94799 24.0124 9.47513L17.4811 15.9929C16.9119 16.5739 16.6937 17.413 16.9075 18.1975C17.1213 18.9816 17.7351 19.5944 18.5212 19.8078C19.3068 20.0212 20.1473 19.8035 20.73 19.2355L25.2055 14.7693C25.3169 14.6581 25.4681 14.5956 25.6258 14.5956C25.783 14.5956 25.9341 14.6581 26.0456 14.7693L36.316 25.0179C36.722 25.4356 36.877 26.036 36.7233 26.5975C36.5699 27.1587 36.1307 27.5975 35.5684 27.7509C35.006 27.9048 34.404 27.7509 33.9855 27.3457L31.3427 24.7084C31.2148 24.5899 31.0157 24.5929 30.8917 24.7157C30.7682 24.839 30.7639 25.0373 30.8822 25.1653L34.1078 28.3841C34.503 28.8039 34.6498 29.4 34.4943 29.9547C34.3388 30.5094 33.9043 30.943 33.348 31.0972C32.7922 31.2519 32.1957 31.105 31.775 30.7102L27.0883 26.0332C26.96 25.9164 26.7631 25.9207 26.6404 26.0431C26.5178 26.1655 26.5134 26.3629 26.6305 26.4905L29.875 29.7326C30.2659 30.1305 30.4283 30.6981 30.3069 31.2416C30.186 31.7851 29.7977 32.2304 29.2751 32.4256C28.7525 32.6204 28.1664 32.5385 27.7176 32.2079C27.9301 31.6683 27.9293 31.0683 27.7163 30.5291C27.503 29.9899 27.0931 29.5511 26.5692 29.3016C26.0448 29.0516 25.4453 29.0093 24.8912 29.183C25.0039 28.6197 24.9007 28.0348 24.6018 27.5439C24.3029 27.053 23.8308 26.6918 23.278 26.5319C22.7251 26.372 22.1326 26.425 21.6169 26.6802C21.6761 26.0501 21.4713 25.4238 21.0519 24.9496C20.6321 24.4751 20.0348 24.1949 19.4011 24.1755C18.7671 24.1557 18.1534 24.3979 17.705 24.8453L17.1392 25.41C17.1483 24.7983 16.9116 24.2087 16.4827 23.7716C16.0538 23.335 15.4677 23.0876 14.8548 23.0842C14.2419 23.0807 13.6528 23.3221 13.2192 23.754L12.9276 24.0427C11.8811 23.3113 11.0147 22.3519 10.3945 21.2368C9.80321 19.7145 8.93334 18.315 7.82986 17.1099L16.3138 8.64357C17.6653 8.29358 19.0612 8.14877 20.4558 8.21343L20.4531 8.21312ZM14.7661 23.7312C15.2114 23.711 15.6468 23.8722 15.9715 24.1773C16.2963 24.4825 16.4833 24.9058 16.4902 25.351C16.4967 25.7958 16.3227 26.2247 16.0074 26.5397L15.3953 27.1483C14.9747 27.5405 14.3795 27.6853 13.8249 27.5302C13.2708 27.375 12.8376 26.9431 12.6821 26.3897C12.527 25.8367 12.6717 25.2427 13.0648 24.8226L13.6729 24.2118C13.9649 23.9209 14.3541 23.7493 14.7661 23.7312ZM19.3513 24.8498C19.7776 24.8635 20.1818 25.0416 20.4794 25.3463C20.777 25.6514 20.945 26.0592 20.9476 26.485C20.9502 26.9104 20.7874 27.3203 20.4937 27.6289L18.0219 30.0977C17.6012 30.4895 17.0056 30.6343 16.4515 30.4792C15.8974 30.324 15.4642 29.8921 15.3087 29.3391C15.1536 28.7857 15.2983 28.1922 15.6909 27.772L18.1627 25.3031C18.4818 24.9997 18.9103 24.836 19.3513 24.8498ZM22.6718 27.1121C23.0985 27.1268 23.5032 27.307 23.7999 27.613C24.0971 27.9194 24.2633 28.3285 24.2638 28.7548C24.2646 29.1811 24.0996 29.5905 23.8038 29.8978L22.1591 31.5386L20.8123 32.8826C20.3955 33.2989 19.7879 33.4619 19.2182 33.3097C18.6489 33.1576 18.2036 32.7141 18.0511 32.146C17.8982 31.5775 18.0606 30.9711 18.4774 30.5546L21.4732 27.5694C21.7949 27.2617 22.2264 27.0966 22.6718 27.1121ZM25.5996 29.7538C26.0264 29.7676 26.4315 29.946 26.7291 30.2516C27.0267 30.5568 27.1943 30.9654 27.196 31.3912C27.1981 31.817 27.0349 32.2269 26.7399 32.5351L24.9497 34.3238C24.5324 34.7354 23.9269 34.8944 23.3607 34.7414C22.794 34.5889 22.3513 34.1471 22.1984 33.582C22.0451 33.0165 22.2049 32.4126 22.6173 31.9959L24.4098 30.2072C24.7298 29.9033 25.1577 29.7396 25.5996 29.7538Z" stroke="#B01736" mask="url(#path-1-outside-1_501_563)"/>
</g>
</svg>
