<svg width="36" height="36" viewBox="0 0 36 36" fill="none" xmlns="http://www.w3.org/2000/svg">
<g opacity="0.9" clip-path="url(#clip0_501_557)">
<mask id="path-1-outside-1_501_557" maskUnits="userSpaceOnUse" x="-4.3522" y="-4.57271" width="44.5477" height="44.5477" fill="black">
<rect fill="white" x="-4.3522" y="-4.57271" width="44.5477" height="44.5477"/>
<path fill-rule="evenodd" clip-rule="evenodd" d="M1.78504 21.589L2.32648 21.0476C2.75046 20.6236 3.29746 20.3959 3.85409 20.367L2.01922 18.5321C1.56581 18.0787 1.3367 17.4806 1.3362 16.8829L1.33547 16.8764L1.33451 16.8755C1.33619 16.2742 1.56337 15.6747 2.01797 15.2201L3.03304 14.205C3.49007 13.748 4.09033 13.5201 4.68967 13.5203C5.28924 13.5193 5.8893 13.748 6.34581 14.2045L11.3089 19.1676L19.1673 11.3093L14.2049 6.34642C13.7493 5.89084 13.5219 5.29203 13.5202 4.69223L13.5214 4.69102L13.5217 4.68885L13.5212 4.68451C13.5236 4.08496 13.7505 3.48804 14.204 3.03462L15.2205 2.01806C15.6771 1.56152 16.2766 1.33432 16.8755 1.33503C17.4746 1.33455 18.0751 1.56272 18.5316 2.01923L20.367 3.85459C20.3971 3.29821 20.6234 2.75023 21.0461 2.32749L21.5875 1.78606C22.0441 1.32952 22.6432 1.10184 23.2437 1.10186C23.8428 1.10137 24.4423 1.32856 24.8991 1.78532L27.2495 4.13578L27.803 4.68741L31.3123 8.19674L31.8637 8.75L34.2157 11.1019C34.6698 11.5561 34.8982 12.1568 34.8982 12.7564L34.8989 12.7595C34.8982 13.3574 34.67 13.958 34.2144 14.4136L33.673 14.955C33.2502 15.3778 32.7028 15.6049 32.1459 15.6341L33.9813 17.4695C34.4371 17.9253 34.664 18.5246 34.6647 19.1249L34.6638 19.1258C34.663 19.7271 34.4356 20.3259 33.9812 20.7803L32.9647 21.7969C32.5079 22.2536 31.9088 22.4813 31.308 22.4816C30.7094 22.4816 30.1106 22.2537 29.6538 21.7969L25.0397 17.1823L17.182 25.04L21.7966 29.6546C22.2524 30.1104 22.4799 30.7093 22.4801 31.31L22.4789 31.3112C22.4798 31.9108 22.2512 32.5108 21.7954 32.9666L20.7803 33.9817C20.3245 34.4375 19.7247 34.6659 19.1249 34.6651C18.5263 34.6651 17.9263 34.4384 17.4695 33.9817L15.6342 32.1463C15.6043 32.7039 15.378 33.2504 14.9541 33.6744L14.4126 34.2158C13.9571 34.6714 13.3565 34.8996 12.7584 34.9005C12.1589 34.8995 11.5579 34.6714 11.1026 34.2161L8.75061 31.8641L8.19812 31.3112L4.68852 27.8021L4.13597 27.25L1.78551 24.8995C1.3321 24.4461 1.10471 23.8488 1.10272 23.2496L1.10272 23.2458L1.10152 23.2446L1.10272 23.2434C1.10296 22.6426 1.33113 22.0429 1.78504 21.589ZM2.57086 15.7714L3.58594 14.7563C3.89079 14.4515 4.29066 14.3005 4.69029 14.3012C5.09088 14.3 5.49074 14.4524 5.79462 14.7563L21.244 30.2056C21.5488 30.5105 21.7005 30.9096 21.7015 31.3076L21.7003 31.3112C21.701 31.7098 21.5476 32.1083 21.2428 32.4131L20.2277 33.4282C19.924 33.7318 19.5239 33.8845 19.1245 33.8845C18.7244 33.8838 18.325 33.7342 18.0202 33.4294L2.57087 17.9801C2.2665 17.6757 2.11359 17.2749 2.11577 16.8757L2.11456 16.8745C2.11481 16.4754 2.26626 16.076 2.57086 15.7714ZM2.33733 22.1408L2.87877 21.5994C3.18217 21.296 3.58251 21.1426 3.98262 21.1438C4.38225 21.1435 4.78235 21.2948 5.08623 21.5986L14.4023 30.9147C14.7054 31.2178 14.8574 31.6172 14.8588 32.0176L14.8576 32.0188C14.8574 32.4179 14.7045 32.8183 14.4011 33.1217L13.8596 33.6631C13.5562 33.9665 13.1569 34.1184 12.7577 34.1187C12.3561 34.1184 11.9568 33.967 11.6534 33.6636L2.33734 24.3475C2.03226 24.0425 1.88057 23.6428 1.88033 23.2461L1.88081 23.2418C1.87983 22.8433 2.03393 22.4442 2.33733 22.1408ZM21.5993 2.87882L22.1407 2.33738C22.4441 2.03398 22.8442 1.88084 23.2446 1.8818C23.6437 1.88204 24.0443 2.03277 24.3482 2.33665L33.6642 11.6527C33.9674 11.9558 34.1193 12.3552 34.1208 12.7556L34.1195 12.7568C34.1193 13.1559 33.9664 13.5563 33.663 13.8597L33.1216 14.4011C32.8179 14.7048 32.4178 14.8574 32.0187 14.8577C31.6183 14.8562 31.2189 14.7047 30.9155 14.4013L21.5995 5.08532C21.2944 4.78024 21.1415 4.38182 21.1425 3.98388L21.1418 3.98074C21.1418 3.58135 21.2954 3.1827 21.5993 2.87882ZM14.7562 3.58596L15.7728 2.5694C16.0762 2.26603 16.476 2.11505 16.8759 2.11553C17.2753 2.11553 17.6764 2.26675 17.9802 2.57063L30.3635 14.9539L33.4298 18.0197C33.7347 18.3246 33.8861 18.724 33.8873 19.1217L33.8861 19.1253C33.8859 19.5249 33.733 19.9228 33.4296 20.2262L32.413 21.2428C32.1094 21.5464 31.709 21.6993 31.3099 21.6991C30.9098 21.6983 30.5104 21.5488 30.2056 21.244L14.7562 5.79464C14.4519 5.49028 14.2987 5.08969 14.2999 4.69151L14.2999 4.6891C14.2995 4.29067 14.4524 3.88984 14.7562 3.58596ZM11.9915 19.5885L15.8555 15.7245L19.7196 11.8604L24.4883 16.6291L16.7602 24.3572L11.9915 19.5885Z"/>
</mask>
<path fill-rule="evenodd" clip-rule="evenodd" d="M1.78504 21.589L2.32648 21.0476C2.75046 20.6236 3.29746 20.3959 3.85409 20.367L2.01922 18.5321C1.56581 18.0787 1.3367 17.4806 1.3362 16.8829L1.33547 16.8764L1.33451 16.8755C1.33619 16.2742 1.56337 15.6747 2.01797 15.2201L3.03304 14.205C3.49007 13.748 4.09033 13.5201 4.68967 13.5203C5.28924 13.5193 5.8893 13.748 6.34581 14.2045L11.3089 19.1676L19.1673 11.3093L14.2049 6.34642C13.7493 5.89084 13.5219 5.29203 13.5202 4.69223L13.5214 4.69102L13.5217 4.68885L13.5212 4.68451C13.5236 4.08496 13.7505 3.48804 14.204 3.03462L15.2205 2.01806C15.6771 1.56152 16.2766 1.33432 16.8755 1.33503C17.4746 1.33455 18.0751 1.56272 18.5316 2.01923L20.367 3.85459C20.3971 3.29821 20.6234 2.75023 21.0461 2.32749L21.5875 1.78606C22.0441 1.32952 22.6432 1.10184 23.2437 1.10186C23.8428 1.10137 24.4423 1.32856 24.8991 1.78532L27.2495 4.13578L27.803 4.68741L31.3123 8.19674L31.8637 8.75L34.2157 11.1019C34.6698 11.5561 34.8982 12.1568 34.8982 12.7564L34.8989 12.7595C34.8982 13.3574 34.67 13.958 34.2144 14.4136L33.673 14.955C33.2502 15.3778 32.7028 15.6049 32.1459 15.6341L33.9813 17.4695C34.4371 17.9253 34.664 18.5246 34.6647 19.1249L34.6638 19.1258C34.663 19.7271 34.4356 20.3259 33.9812 20.7803L32.9647 21.7969C32.5079 22.2536 31.9088 22.4813 31.308 22.4816C30.7094 22.4816 30.1106 22.2537 29.6538 21.7969L25.0397 17.1823L17.182 25.04L21.7966 29.6546C22.2524 30.1104 22.4799 30.7093 22.4801 31.31L22.4789 31.3112C22.4798 31.9108 22.2512 32.5108 21.7954 32.9666L20.7803 33.9817C20.3245 34.4375 19.7247 34.6659 19.1249 34.6651C18.5263 34.6651 17.9263 34.4384 17.4695 33.9817L15.6342 32.1463C15.6043 32.7039 15.378 33.2504 14.9541 33.6744L14.4126 34.2158C13.9571 34.6714 13.3565 34.8996 12.7584 34.9005C12.1589 34.8995 11.5579 34.6714 11.1026 34.2161L8.75061 31.8641L8.19812 31.3112L4.68852 27.8021L4.13597 27.25L1.78551 24.8995C1.3321 24.4461 1.10471 23.8488 1.10272 23.2496L1.10272 23.2458L1.10152 23.2446L1.10272 23.2434C1.10296 22.6426 1.33113 22.0429 1.78504 21.589ZM2.57086 15.7714L3.58594 14.7563C3.89079 14.4515 4.29066 14.3005 4.69029 14.3012C5.09088 14.3 5.49074 14.4524 5.79462 14.7563L21.244 30.2056C21.5488 30.5105 21.7005 30.9096 21.7015 31.3076L21.7003 31.3112C21.701 31.7098 21.5476 32.1083 21.2428 32.4131L20.2277 33.4282C19.924 33.7318 19.5239 33.8845 19.1245 33.8845C18.7244 33.8838 18.325 33.7342 18.0202 33.4294L2.57087 17.9801C2.2665 17.6757 2.11359 17.2749 2.11577 16.8757L2.11456 16.8745C2.11481 16.4754 2.26626 16.076 2.57086 15.7714ZM2.33733 22.1408L2.87877 21.5994C3.18217 21.296 3.58251 21.1426 3.98262 21.1438C4.38225 21.1435 4.78235 21.2948 5.08623 21.5986L14.4023 30.9147C14.7054 31.2178 14.8574 31.6172 14.8588 32.0176L14.8576 32.0188C14.8574 32.4179 14.7045 32.8183 14.4011 33.1217L13.8596 33.6631C13.5562 33.9665 13.1569 34.1184 12.7577 34.1187C12.3561 34.1184 11.9568 33.967 11.6534 33.6636L2.33734 24.3475C2.03226 24.0425 1.88057 23.6428 1.88033 23.2461L1.88081 23.2418C1.87983 22.8433 2.03393 22.4442 2.33733 22.1408ZM21.5993 2.87882L22.1407 2.33738C22.4441 2.03398 22.8442 1.88084 23.2446 1.8818C23.6437 1.88204 24.0443 2.03277 24.3482 2.33665L33.6642 11.6527C33.9674 11.9558 34.1193 12.3552 34.1208 12.7556L34.1195 12.7568C34.1193 13.1559 33.9664 13.5563 33.663 13.8597L33.1216 14.4011C32.8179 14.7048 32.4178 14.8574 32.0187 14.8577C31.6183 14.8562 31.2189 14.7047 30.9155 14.4013L21.5995 5.08532C21.2944 4.78024 21.1415 4.38182 21.1425 3.98388L21.1418 3.98074C21.1418 3.58135 21.2954 3.1827 21.5993 2.87882ZM14.7562 3.58596L15.7728 2.5694C16.0762 2.26603 16.476 2.11505 16.8759 2.11553C17.2753 2.11553 17.6764 2.26675 17.9802 2.57063L30.3635 14.9539L33.4298 18.0197C33.7347 18.3246 33.8861 18.724 33.8873 19.1217L33.8861 19.1253C33.8859 19.5249 33.733 19.9228 33.4296 20.2262L32.413 21.2428C32.1094 21.5464 31.709 21.6993 31.3099 21.6991C30.9098 21.6983 30.5104 21.5488 30.2056 21.244L14.7562 5.79464C14.4519 5.49028 14.2987 5.08969 14.2999 4.69151L14.2999 4.6891C14.2995 4.29067 14.4524 3.88984 14.7562 3.58596ZM11.9915 19.5885L15.8555 15.7245L19.7196 11.8604L24.4883 16.6291L16.7602 24.3572L11.9915 19.5885Z" fill="#B01736"/>
<path fill-rule="evenodd" clip-rule="evenodd" d="M1.78504 21.589L2.32648 21.0476C2.75046 20.6236 3.29746 20.3959 3.85409 20.367L2.01922 18.5321C1.56581 18.0787 1.3367 17.4806 1.3362 16.8829L1.33547 16.8764L1.33451 16.8755C1.33619 16.2742 1.56337 15.6747 2.01797 15.2201L3.03304 14.205C3.49007 13.748 4.09033 13.5201 4.68967 13.5203C5.28924 13.5193 5.8893 13.748 6.34581 14.2045L11.3089 19.1676L19.1673 11.3093L14.2049 6.34642C13.7493 5.89084 13.5219 5.29203 13.5202 4.69223L13.5214 4.69102L13.5217 4.68885L13.5212 4.68451C13.5236 4.08496 13.7505 3.48804 14.204 3.03462L15.2205 2.01806C15.6771 1.56152 16.2766 1.33432 16.8755 1.33503C17.4746 1.33455 18.0751 1.56272 18.5316 2.01923L20.367 3.85459C20.3971 3.29821 20.6234 2.75023 21.0461 2.32749L21.5875 1.78606C22.0441 1.32952 22.6432 1.10184 23.2437 1.10186C23.8428 1.10137 24.4423 1.32856 24.8991 1.78532L27.2495 4.13578L27.803 4.68741L31.3123 8.19674L31.8637 8.75L34.2157 11.1019C34.6698 11.5561 34.8982 12.1568 34.8982 12.7564L34.8989 12.7595C34.8982 13.3574 34.67 13.958 34.2144 14.4136L33.673 14.955C33.2502 15.3778 32.7028 15.6049 32.1459 15.6341L33.9813 17.4695C34.4371 17.9253 34.664 18.5246 34.6647 19.1249L34.6638 19.1258C34.663 19.7271 34.4356 20.3259 33.9812 20.7803L32.9647 21.7969C32.5079 22.2536 31.9088 22.4813 31.308 22.4816C30.7094 22.4816 30.1106 22.2537 29.6538 21.7969L25.0397 17.1823L17.182 25.04L21.7966 29.6546C22.2524 30.1104 22.4799 30.7093 22.4801 31.31L22.4789 31.3112C22.4798 31.9108 22.2512 32.5108 21.7954 32.9666L20.7803 33.9817C20.3245 34.4375 19.7247 34.6659 19.1249 34.6651C18.5263 34.6651 17.9263 34.4384 17.4695 33.9817L15.6342 32.1463C15.6043 32.7039 15.378 33.2504 14.9541 33.6744L14.4126 34.2158C13.9571 34.6714 13.3565 34.8996 12.7584 34.9005C12.1589 34.8995 11.5579 34.6714 11.1026 34.2161L8.75061 31.8641L8.19812 31.3112L4.68852 27.8021L4.13597 27.25L1.78551 24.8995C1.3321 24.4461 1.10471 23.8488 1.10272 23.2496L1.10272 23.2458L1.10152 23.2446L1.10272 23.2434C1.10296 22.6426 1.33113 22.0429 1.78504 21.589ZM2.57086 15.7714L3.58594 14.7563C3.89079 14.4515 4.29066 14.3005 4.69029 14.3012C5.09088 14.3 5.49074 14.4524 5.79462 14.7563L21.244 30.2056C21.5488 30.5105 21.7005 30.9096 21.7015 31.3076L21.7003 31.3112C21.701 31.7098 21.5476 32.1083 21.2428 32.4131L20.2277 33.4282C19.924 33.7318 19.5239 33.8845 19.1245 33.8845C18.7244 33.8838 18.325 33.7342 18.0202 33.4294L2.57087 17.9801C2.2665 17.6757 2.11359 17.2749 2.11577 16.8757L2.11456 16.8745C2.11481 16.4754 2.26626 16.076 2.57086 15.7714ZM2.33733 22.1408L2.87877 21.5994C3.18217 21.296 3.58251 21.1426 3.98262 21.1438C4.38225 21.1435 4.78235 21.2948 5.08623 21.5986L14.4023 30.9147C14.7054 31.2178 14.8574 31.6172 14.8588 32.0176L14.8576 32.0188C14.8574 32.4179 14.7045 32.8183 14.4011 33.1217L13.8596 33.6631C13.5562 33.9665 13.1569 34.1184 12.7577 34.1187C12.3561 34.1184 11.9568 33.967 11.6534 33.6636L2.33734 24.3475C2.03226 24.0425 1.88057 23.6428 1.88033 23.2461L1.88081 23.2418C1.87983 22.8433 2.03393 22.4442 2.33733 22.1408ZM21.5993 2.87882L22.1407 2.33738C22.4441 2.03398 22.8442 1.88084 23.2446 1.8818C23.6437 1.88204 24.0443 2.03277 24.3482 2.33665L33.6642 11.6527C33.9674 11.9558 34.1193 12.3552 34.1208 12.7556L34.1195 12.7568C34.1193 13.1559 33.9664 13.5563 33.663 13.8597L33.1216 14.4011C32.8179 14.7048 32.4178 14.8574 32.0187 14.8577C31.6183 14.8562 31.2189 14.7047 30.9155 14.4013L21.5995 5.08532C21.2944 4.78024 21.1415 4.38182 21.1425 3.98388L21.1418 3.98074C21.1418 3.58135 21.2954 3.1827 21.5993 2.87882ZM14.7562 3.58596L15.7728 2.5694C16.0762 2.26603 16.476 2.11505 16.8759 2.11553C17.2753 2.11553 17.6764 2.26675 17.9802 2.57063L30.3635 14.9539L33.4298 18.0197C33.7347 18.3246 33.8861 18.724 33.8873 19.1217L33.8861 19.1253C33.8859 19.5249 33.733 19.9228 33.4296 20.2262L32.413 21.2428C32.1094 21.5464 31.709 21.6993 31.3099 21.6991C30.9098 21.6983 30.5104 21.5488 30.2056 21.244L14.7562 5.79464C14.4519 5.49028 14.2987 5.08969 14.2999 4.69151L14.2999 4.6891C14.2995 4.29067 14.4524 3.88984 14.7562 3.58596ZM11.9915 19.5885L15.8555 15.7245L19.7196 11.8604L24.4883 16.6291L16.7602 24.3572L11.9915 19.5885Z" stroke="#B01736" stroke-width="0.8" mask="url(#path-1-outside-1_501_557)"/>
</g>
<defs>
<clipPath id="clip0_501_557">
<rect width="34.9091" height="34.9091" fill="white" transform="translate(0.54541 0.54541)"/>
</clipPath>
</defs>
</svg>
