<svg width="48" height="48" viewBox="0 0 48 48" fill="none" xmlns="http://www.w3.org/2000/svg">
<rect x="26.9375" y="27.8945" width="9" height="9" rx="1" stroke="#B01736" stroke-width="2"/>
<path d="M8.14844 21.2354V35.1177V46.0001C8.14844 46.5524 8.59615 47.0001 9.14844 47.0001H38.9329C39.4852 47.0001 39.9329 46.5524 39.9329 46.0001V21.2354M22.1484 47.0001V28.8952C22.1484 28.3429 21.7007 27.8952 21.1484 27.8952H14.1484C13.5962 27.8952 13.1484 28.3429 13.1484 28.8952V47.0001" stroke="#B01736" stroke-width="2"/>
<path d="M2.44763 21H45.5524C46.915 21 47.5201 19.3298 46.4597 18.4956L24.6194 1.31241C24.0844 0.891515 23.3193 0.8964 22.79 1.32409L1.52562 18.5073C0.483846 19.3491 1.09448 21 2.44763 21Z" stroke="#B01736" stroke-width="2"/>
</svg>
